<svg width="308.755859" height="51.368408" viewBox="0 0 308.756 51.3684" fill="none" xmlns="http://www.w3.org/2000/svg" xmlns:xlink="http://www.w3.org/1999/xlink">
	<desc>
			Created with Pixso.
	</desc>
	<defs/>
	<path id="image 16 (Traced)" d="M172.635 2.81873C148.466 6.54077 128.132 23.3065 118.023 47.8488C117.708 48.6124 117.494 49.2787 117.547 49.3292C117.599 49.3801 118.627 47.8938 119.831 46.0269C131.183 28.4135 147.372 16.5565 165.34 12.6934C170.192 11.6508 173.215 11.2599 173.065 11.6948C173.004 11.8735 171.427 14.2399 169.561 16.9535L166.168 21.8878L158.265 22.0541L150.361 22.2206L147.931 24.9214L145.502 27.6226L153.747 27.4786C158.283 27.3994 161.996 27.448 161.998 27.5861C162.001 27.7245 160.908 29.4036 159.571 31.3176C158.233 33.2318 157.203 34.9028 157.282 35.0308C157.361 35.1591 159.31 35.231 161.615 35.1907C166.149 35.1116 166.231 35.084 167.538 33.2034C168.476 31.8542 181.11 14.0787 184.599 9.20056C189.538 2.29504 189.441 2.45215 188.888 2.25244C187.97 1.9209 175.687 2.34875 172.635 2.81873ZM11.2052 14.4874C7.21759 20.1675 5.11279 23.1559 2.59698 26.7085C1.40277 28.3947 0.427612 29.8719 0.429688 29.9912C0.431763 30.1105 7.0835 30.027 15.2117 29.806C30.9052 29.3795 32.1342 29.2522 36.2656 27.6284C41.7031 25.4911 47.034 20.3418 47.0054 17.2538C46.9812 14.6165 44.5886 11.782 41.5219 10.7573C39.9179 10.2213 38.7211 10.1836 26.9183 10.2957L14.0618 10.4181L11.2052 14.4874ZM54.8346 11.858C55.9795 13.0035 57.9255 14.946 59.1586 16.1741C60.5661 17.5763 61.2894 18.5172 61.1016 18.7019C60.8314 18.9675 55.5974 21.5654 43.7859 27.2957L39.6269 29.3136L46.0231 29.2871L52.4194 29.2609L58.7557 26.1605C62.2406 24.4557 65.2299 23.0582 65.3987 23.0552C65.5672 23.0522 67.0418 24.4395 68.6752 26.1378L71.6451 29.2257L76.5371 29.1403C79.3346 29.0914 81.3821 28.9336 81.3189 28.7717C81.2583 28.6161 79.3596 26.5203 77.1 24.1141C74.8403 21.708 72.9893 19.6285 72.9869 19.4929C72.9846 19.3573 74.2176 18.646 75.7266 17.9122C77.236 17.1786 81.9279 14.8862 86.1535 12.8185L93.8363 9.05859L87.143 9.17505L80.4501 9.29163L76.7403 11.1193C74.7002 12.1245 72.0253 13.4312 70.7965 14.0227L68.5623 15.0989L66.0571 12.3425L63.5519 9.58655L58.1525 9.68079L52.7529 9.77502L54.8346 11.858ZM97.3289 12.6714C95.8494 14.7343 92.6523 19.1766 90.225 22.5433L85.8111 28.6644L89.5821 28.5986L93.3533 28.5328L94.0918 27.4995C98.475 21.3657 100.55 18.4718 101.966 16.5179L103.646 14.2001L114.033 14.1095C123.394 14.0277 124.475 14.0714 124.978 14.5533C125.764 15.3076 125.264 16.618 123.868 17.4653C122.851 18.0828 122.125 18.1514 113.46 18.4486L104.146 18.7682L109.684 23.4596L115.221 28.1511L120.021 28.0673C124.058 27.9968 124.747 27.9176 124.351 27.5701C124.093 27.3425 122.798 26.2822 121.475 25.2136C120.152 24.1454 119.027 23.1744 118.976 23.0566C118.924 22.9385 120.272 22.7367 121.972 22.6078C127.48 22.1898 131.525 20.0686 133.257 16.6902C134.954 13.3798 133.847 10.7222 130.148 9.22656C128.691 8.63757 127.931 8.61536 114.318 8.76416L100.019 8.92017L97.3289 12.6714ZM192.736 8.09143C191.659 8.50989 190.32 9.21277 189.759 9.65295C189.198 10.0933 186.831 13.2124 184.498 16.5847C181.354 21.1289 180.261 22.9552 180.273 23.6407C180.293 24.787 181.784 26.2109 183.438 26.6621C184.21 26.8724 189.009 26.8691 197.72 26.6521C197.72 26.6521 209.133 26.614 210.839 26.3251C214.226 25.7515 215.796 23.493 217.673 20.7898L218.831 19.1211L214.394 19.1986L209.957 19.276L209.132 20.3894L208.308 21.5027L200.262 21.6431C192.079 21.7859 190.992 21.6658 190.971 20.6168C190.956 19.8705 194.157 15.08 195.451 13.9116C196.036 13.3837 197.049 12.7939 197.703 12.6013C198.384 12.4008 202.232 12.1923 206.716 12.113C214.882 11.9686 215.167 12.0145 214.041 13.293C213.546 13.8555 213.69 13.873 218.082 13.7869C222.422 13.7018 222.659 13.6643 223.116 12.9926C223.381 12.6046 224.057 11.6173 224.62 10.7981C225.408 9.65051 225.592 9.12012 225.42 8.48706C224.97 6.83118 224.353 6.7782 208.852 7.06665C194.849 7.32739 194.673 7.33862 192.736 8.09143ZM228.537 12.4368C226.337 15.6268 223.275 20.0599 221.733 22.2887L218.929 26.3408L236.601 26.0325L254.273 25.724L255.997 23.2605L257.722 20.7971L244.513 20.9489C237.249 21.0323 231.12 21.0358 230.894 20.9562C230.59 20.8494 230.663 20.5605 231.171 19.8524L231.859 18.8938L242.312 18.7097L252.766 18.5256L254.307 16.2341C255.155 14.9738 255.894 13.8312 255.949 13.6952C256.005 13.5592 251.486 13.5276 245.907 13.625C235.094 13.8137 235.121 13.8176 236.352 12.3003L236.933 11.5837L250.388 11.3489L263.844 11.114L265.036 9.44482C265.691 8.52661 266.475 7.38293 266.777 6.90271L267.326 6.02966L249.932 6.33325L232.537 6.63684L228.537 12.4368ZM267.877 14.542C264.481 19.2924 261.308 23.7292 260.826 24.4017L259.951 25.6249L263.715 25.5591L267.479 25.4934L271.008 20.5398C272.948 17.8154 275.282 14.5885 276.193 13.3691L277.85 11.1521L288.202 11.0657C299.004 10.9753 299.616 11.0435 299.612 12.3334C299.609 13.2445 298.436 14.3263 296.932 14.8047C295.825 15.1561 293.306 15.3109 286.739 15.4309C278.422 15.5826 278.047 15.615 278.703 16.1206C279.081 16.4126 281.633 18.5583 284.374 20.8895L289.357 25.1282L294.115 24.9581L298.874 24.7885L295.996 22.4933C294.413 21.2311 293.116 20.0879 293.114 19.9532C293.112 19.8186 293.999 19.6904 295.086 19.6687C300.925 19.5504 305.848 17.0164 307.551 13.252C308.942 10.1755 307.857 7.72278 304.461 6.26782C302.836 5.57178 302.729 5.56799 288.438 5.73621L274.051 5.9054L267.877 14.542ZM35.1967 15.528C38.2673 16.1111 39.1202 17.2837 38.044 19.4417C37.4521 20.6281 35.2792 22.4435 33.3383 23.3734C31.8621 24.0808 31.3881 24.1243 22.391 24.3765C17.2185 24.5214 12.9852 24.5494 12.9833 24.4386C12.9813 24.3278 14.3859 22.2451 16.1047 19.8104L19.2296 15.3838L26.2249 15.2683C30.7379 15.1936 33.9214 15.2859 35.1967 15.528Z" fill="#FFFFFF" fill-opacity="1.000000" fill-rule="evenodd"/>
</svg>
